<?xml version="1.0" encoding="UTF-8" standalone="no"?>
<!DOCTYPE svg PUBLIC "-//W3C//DTD SVG 1.1//EN"
 "http://www.w3.org/Graphics/SVG/1.1/DTD/svg11.dtd">
<!-- Generated by graphviz version 12.1.2 (20240928.0832)
 -->
<!-- Title: public.restaurant_themes Pages: 1 -->
<svg width="773pt" height="664pt"
 viewBox="0.00 0.00 773.23 663.60" xmlns="http://www.w3.org/2000/svg" xmlns:xlink="http://www.w3.org/1999/xlink">
<g id="graph0" class="graph" transform="scale(1 1) rotate(0) translate(4 659.6)">
<title>public.restaurant_themes</title>
<polygon fill="white" stroke="none" points="-4,4 -4,-659.6 769.23,-659.6 769.23,4 -4,4"/>
<!-- public.restaurant_themes -->
<g id="node1" class="node">
<title>public.restaurant_themes</title>
<polygon fill="#efefef" stroke="none" points="46.2,-573.8 46.2,-609.4 365.13,-609.4 365.13,-573.8 46.2,-573.8"/>
<polygon fill="none" stroke="black" points="46.2,-573.8 46.2,-609.4 365.13,-609.4 365.13,-573.8 46.2,-573.8"/>
<text text-anchor="start" x="53.2" y="-587.2" font-family="Arial Bold" font-size="18.00">public.restaurant_themes</text>
<text text-anchor="start" x="233.64" y="-587.2" font-family="Arial" font-size="14.00">    </text>
<text text-anchor="start" x="264.76" y="-587.2" font-family="Arial" font-size="14.00" fill="#666666">[BASE TABLE]</text>
<polygon fill="none" stroke="black" points="46.2,-543 46.2,-573.8 365.13,-573.8 365.13,-543 46.2,-543"/>
<text text-anchor="start" x="53.2" y="-555.2" font-family="Arial" font-size="14.00">restaurant_id </text>
<text text-anchor="start" x="138.81" y="-555.2" font-family="Arial" font-size="14.00" fill="#666666">[uuid]</text>
<polygon fill="none" stroke="black" points="46.2,-512.2 46.2,-543 365.13,-543 365.13,-512.2 46.2,-512.2"/>
<text text-anchor="start" x="53.2" y="-524.4" font-family="Arial" font-size="14.00">theme </text>
<text text-anchor="start" x="96" y="-524.4" font-family="Arial" font-size="14.00" fill="#666666">[jsonb]</text>
<polygon fill="none" stroke="black" points="46.2,-481.4 46.2,-512.2 365.13,-512.2 365.13,-481.4 46.2,-481.4"/>
<text text-anchor="start" x="53.2" y="-493.6" font-family="Arial" font-size="14.00">design_md </text>
<text text-anchor="start" x="125.58" y="-493.6" font-family="Arial" font-size="14.00" fill="#666666">[text]</text>
<polygon fill="none" stroke="black" points="46.2,-450.6 46.2,-481.4 365.13,-481.4 365.13,-450.6 46.2,-450.6"/>
<text text-anchor="start" x="53.2" y="-462.8" font-family="Arial" font-size="14.00">updated_at </text>
<text text-anchor="start" x="127.16" y="-462.8" font-family="Arial" font-size="14.00" fill="#666666">[timestamp with time zone]</text>
<polygon fill="none" stroke="black" stroke-width="3" points="44.7,-449.1 44.7,-610.9 366.63,-610.9 366.63,-449.1 44.7,-449.1"/>
</g>
<!-- public.restaurants -->
<g id="node2" class="node">
<title>public.restaurants</title>
<polygon fill="#efefef" stroke="none" points="72.69,-289.6 72.69,-325.2 338.64,-325.2 338.64,-289.6 72.69,-289.6"/>
<polygon fill="none" stroke="black" points="72.69,-289.6 72.69,-325.2 338.64,-325.2 338.64,-289.6 72.69,-289.6"/>
<text text-anchor="start" x="79.69" y="-303" font-family="Arial Bold" font-size="18.00">public.restaurants</text>
<text text-anchor="start" x="207.15" y="-303" font-family="Arial" font-size="14.00">    </text>
<text text-anchor="start" x="238.27" y="-303" font-family="Arial" font-size="14.00" fill="#666666">[BASE TABLE]</text>
<polygon fill="none" stroke="black" points="72.69,-258.8 72.69,-289.6 338.64,-289.6 338.64,-258.8 72.69,-258.8"/>
<text text-anchor="start" x="79.69" y="-271" font-family="Arial" font-size="14.00">id </text>
<text text-anchor="start" x="94.48" y="-271" font-family="Arial" font-size="14.00" fill="#666666">[uuid]</text>
<polygon fill="none" stroke="black" points="72.69,-228 72.69,-258.8 338.64,-258.8 338.64,-228 72.69,-228"/>
<text text-anchor="start" x="79.69" y="-240.2" font-family="Arial" font-size="14.00">slug </text>
<text text-anchor="start" x="109.26" y="-240.2" font-family="Arial" font-size="14.00" fill="#666666">[text]</text>
<polygon fill="none" stroke="black" points="72.69,-197.2 72.69,-228 338.64,-228 338.64,-197.2 72.69,-197.2"/>
<text text-anchor="start" x="79.69" y="-209.4" font-family="Arial" font-size="14.00">name </text>
<text text-anchor="start" x="118.6" y="-209.4" font-family="Arial" font-size="14.00" fill="#666666">[text]</text>
<polygon fill="none" stroke="black" points="72.69,-166.4 72.69,-197.2 338.64,-197.2 338.64,-166.4 72.69,-166.4"/>
<text text-anchor="start" x="79.69" y="-178.6" font-family="Arial" font-size="14.00">created_at </text>
<text text-anchor="start" x="149.74" y="-178.6" font-family="Arial" font-size="14.00" fill="#666666">[timestamp with time zone]</text>
<polygon fill="none" stroke="black" points="72.69,-135.6 72.69,-166.4 338.64,-166.4 338.64,-135.6 72.69,-135.6"/>
<text text-anchor="start" x="79.69" y="-147.8" font-family="Arial" font-size="14.00">org_id </text>
<text text-anchor="start" x="122.5" y="-147.8" font-family="Arial" font-size="14.00" fill="#666666">[uuid]</text>
<polygon fill="none" stroke="black" points="72.69,-104.8 72.69,-135.6 338.64,-135.6 338.64,-104.8 72.69,-104.8"/>
<text text-anchor="start" x="79.69" y="-117" font-family="Arial" font-size="14.00">address </text>
<text text-anchor="start" x="133.39" y="-117" font-family="Arial" font-size="14.00" fill="#666666">[text]</text>
<polygon fill="none" stroke="black" points="72.69,-74 72.69,-104.8 338.64,-104.8 338.64,-74 72.69,-74"/>
<text text-anchor="start" x="79.69" y="-86.2" font-family="Arial" font-size="14.00">hours </text>
<text text-anchor="start" x="118.6" y="-86.2" font-family="Arial" font-size="14.00" fill="#666666">[jsonb]</text>
<polygon fill="none" stroke="black" points="72.69,-43.2 72.69,-74 338.64,-74 338.64,-43.2 72.69,-43.2"/>
<text text-anchor="start" x="79.69" y="-55.4" font-family="Arial" font-size="14.00">contacts </text>
<text text-anchor="start" x="135.72" y="-55.4" font-family="Arial" font-size="14.00" fill="#666666">[jsonb]</text>
</g>
<!-- public.restaurant_themes&#45;&gt;public.restaurants -->
<g id="edge1" class="edge">
<title>public.restaurant_themes:restaurant_id&#45;&gt;public.restaurants:id</title>
<path fill="none" stroke="black" d="M376.05,-555.77C426.44,-527.12 399.48,-274.2 339.64,-274.2"/>
<polygon fill="black" stroke="black" points="376.12,-555.75 365.3,-553.96 370.96,-557.12 366.78,-558.23 366.78,-558.23 366.78,-558.23 370.96,-557.12 367.61,-562.66 376.12,-555.75"/>
<text text-anchor="start" x="373.13" y="-568.4" font-family="Arial" font-size="10.00">FOREIGN KEY (restaurant_id) REFERENCES restaurants(id) ON DELETE CASCADE</text>
</g>
</g>
</svg>
