<?xml version="1.0" encoding="UTF-8" standalone="no"?>
<!DOCTYPE svg PUBLIC "-//W3C//DTD SVG 1.1//EN"
 "http://www.w3.org/Graphics/SVG/1.1/DTD/svg11.dtd">
<!-- Generated by graphviz version 12.1.2 (20240928.0832)
 -->
<!-- Title: public.custom_domains Pages: 1 -->
<svg width="764pt" height="664pt"
 viewBox="0.00 0.00 764.28 663.60" xmlns="http://www.w3.org/2000/svg" xmlns:xlink="http://www.w3.org/1999/xlink">
<g id="graph0" class="graph" transform="scale(1 1) rotate(0) translate(4 659.6)">
<title>public.custom_domains</title>
<polygon fill="white" stroke="none" points="-4,4 -4,-659.6 760.28,-659.6 760.28,4 -4,4"/>
<!-- public.custom_domains -->
<g id="node1" class="node">
<title>public.custom_domains</title>
<polygon fill="#efefef" stroke="none" points="46.2,-573.8 46.2,-609.4 356.17,-609.4 356.17,-573.8 46.2,-573.8"/>
<polygon fill="none" stroke="black" points="46.2,-573.8 46.2,-609.4 356.17,-609.4 356.17,-573.8 46.2,-573.8"/>
<text text-anchor="start" x="53.2" y="-587.2" font-family="Arial Bold" font-size="18.00">public.custom_domains</text>
<text text-anchor="start" x="224.68" y="-587.2" font-family="Arial" font-size="14.00">    </text>
<text text-anchor="start" x="255.8" y="-587.2" font-family="Arial" font-size="14.00" fill="#666666">[BASE TABLE]</text>
<polygon fill="none" stroke="black" points="46.2,-543 46.2,-573.8 356.17,-573.8 356.17,-543 46.2,-543"/>
<text text-anchor="start" x="53.2" y="-555.2" font-family="Arial" font-size="14.00">domain </text>
<text text-anchor="start" x="103.01" y="-555.2" font-family="Arial" font-size="14.00" fill="#666666">[text]</text>
<polygon fill="none" stroke="black" points="46.2,-512.2 46.2,-543 356.17,-543 356.17,-512.2 46.2,-512.2"/>
<text text-anchor="start" x="53.2" y="-524.4" font-family="Arial" font-size="14.00">restaurant_id </text>
<text text-anchor="start" x="138.81" y="-524.4" font-family="Arial" font-size="14.00" fill="#666666">[uuid]</text>
<polygon fill="none" stroke="black" points="46.2,-481.4 46.2,-512.2 356.17,-512.2 356.17,-481.4 46.2,-481.4"/>
<text text-anchor="start" x="53.2" y="-493.6" font-family="Arial" font-size="14.00">verified_at </text>
<text text-anchor="start" x="121.68" y="-493.6" font-family="Arial" font-size="14.00" fill="#666666">[timestamp with time zone]</text>
<polygon fill="none" stroke="black" points="46.2,-450.6 46.2,-481.4 356.17,-481.4 356.17,-450.6 46.2,-450.6"/>
<text text-anchor="start" x="53.2" y="-462.8" font-family="Arial" font-size="14.00">created_at </text>
<text text-anchor="start" x="123.25" y="-462.8" font-family="Arial" font-size="14.00" fill="#666666">[timestamp with time zone]</text>
<polygon fill="none" stroke="black" stroke-width="3" points="44.7,-449.1 44.7,-610.9 357.67,-610.9 357.67,-449.1 44.7,-449.1"/>
</g>
<!-- public.restaurants -->
<g id="node2" class="node">
<title>public.restaurants</title>
<polygon fill="#efefef" stroke="none" points="68.21,-289.6 68.21,-325.2 334.16,-325.2 334.16,-289.6 68.21,-289.6"/>
<polygon fill="none" stroke="black" points="68.21,-289.6 68.21,-325.2 334.16,-325.2 334.16,-289.6 68.21,-289.6"/>
<text text-anchor="start" x="75.21" y="-303" font-family="Arial Bold" font-size="18.00">public.restaurants</text>
<text text-anchor="start" x="202.67" y="-303" font-family="Arial" font-size="14.00">    </text>
<text text-anchor="start" x="233.79" y="-303" font-family="Arial" font-size="14.00" fill="#666666">[BASE TABLE]</text>
<polygon fill="none" stroke="black" points="68.21,-258.8 68.21,-289.6 334.16,-289.6 334.16,-258.8 68.21,-258.8"/>
<text text-anchor="start" x="75.21" y="-271" font-family="Arial" font-size="14.00">id </text>
<text text-anchor="start" x="90" y="-271" font-family="Arial" font-size="14.00" fill="#666666">[uuid]</text>
<polygon fill="none" stroke="black" points="68.21,-228 68.21,-258.8 334.16,-258.8 334.16,-228 68.21,-228"/>
<text text-anchor="start" x="75.21" y="-240.2" font-family="Arial" font-size="14.00">slug </text>
<text text-anchor="start" x="104.78" y="-240.2" font-family="Arial" font-size="14.00" fill="#666666">[text]</text>
<polygon fill="none" stroke="black" points="68.21,-197.2 68.21,-228 334.16,-228 334.16,-197.2 68.21,-197.2"/>
<text text-anchor="start" x="75.21" y="-209.4" font-family="Arial" font-size="14.00">name </text>
<text text-anchor="start" x="114.12" y="-209.4" font-family="Arial" font-size="14.00" fill="#666666">[text]</text>
<polygon fill="none" stroke="black" points="68.21,-166.4 68.21,-197.2 334.16,-197.2 334.16,-166.4 68.21,-166.4"/>
<text text-anchor="start" x="75.21" y="-178.6" font-family="Arial" font-size="14.00">created_at </text>
<text text-anchor="start" x="145.26" y="-178.6" font-family="Arial" font-size="14.00" fill="#666666">[timestamp with time zone]</text>
<polygon fill="none" stroke="black" points="68.21,-135.6 68.21,-166.4 334.16,-166.4 334.16,-135.6 68.21,-135.6"/>
<text text-anchor="start" x="75.21" y="-147.8" font-family="Arial" font-size="14.00">org_id </text>
<text text-anchor="start" x="118.02" y="-147.8" font-family="Arial" font-size="14.00" fill="#666666">[uuid]</text>
<polygon fill="none" stroke="black" points="68.21,-104.8 68.21,-135.6 334.16,-135.6 334.16,-104.8 68.21,-104.8"/>
<text text-anchor="start" x="75.21" y="-117" font-family="Arial" font-size="14.00">address </text>
<text text-anchor="start" x="128.91" y="-117" font-family="Arial" font-size="14.00" fill="#666666">[text]</text>
<polygon fill="none" stroke="black" points="68.21,-74 68.21,-104.8 334.16,-104.8 334.16,-74 68.21,-74"/>
<text text-anchor="start" x="75.21" y="-86.2" font-family="Arial" font-size="14.00">hours </text>
<text text-anchor="start" x="114.12" y="-86.2" font-family="Arial" font-size="14.00" fill="#666666">[jsonb]</text>
<polygon fill="none" stroke="black" points="68.21,-43.2 68.21,-74 334.16,-74 334.16,-43.2 68.21,-43.2"/>
<text text-anchor="start" x="75.21" y="-55.4" font-family="Arial" font-size="14.00">contacts </text>
<text text-anchor="start" x="131.24" y="-55.4" font-family="Arial" font-size="14.00" fill="#666666">[jsonb]</text>
</g>
<!-- public.custom_domains&#45;&gt;public.restaurants -->
<g id="edge1" class="edge">
<title>public.custom_domains:restaurant_id&#45;&gt;public.restaurants:id</title>
<path fill="none" stroke="black" d="M367.38,-526.87C468.75,-512.01 444.67,-274.2 335.16,-274.2"/>
<polygon fill="black" stroke="black" points="367.48,-526.87 357.19,-523.09 362.16,-527.24 357.84,-527.55 357.84,-527.55 357.84,-527.55 362.16,-527.24 357.83,-532.06 367.48,-526.87"/>
<text text-anchor="start" x="364.17" y="-537.6" font-family="Arial" font-size="10.00">FOREIGN KEY (restaurant_id) REFERENCES restaurants(id) ON DELETE CASCADE</text>
</g>
</g>
</svg>
