<?xml version="1.0" encoding="UTF-8" standalone="no"?>
<!DOCTYPE svg PUBLIC "-//W3C//DTD SVG 1.1//EN"
 "http://www.w3.org/Graphics/SVG/1.1/DTD/svg11.dtd">
<!-- Generated by graphviz version 12.1.2 (20240928.0832)
 -->
<!-- Title: public.options Pages: 1 -->
<svg width="745pt" height="602pt"
 viewBox="0.00 0.00 744.51 602.00" xmlns="http://www.w3.org/2000/svg" xmlns:xlink="http://www.w3.org/1999/xlink">
<g id="graph0" class="graph" transform="scale(1 1) rotate(0) translate(4 598)">
<title>public.options</title>
<polygon fill="white" stroke="none" points="-4,4 -4,-598 740.51,-598 740.51,4 -4,4"/>
<!-- public.options -->
<g id="node1" class="node">
<title>public.options</title>
<polygon fill="#efefef" stroke="none" points="68.7,-512.2 68.7,-547.8 309.68,-547.8 309.68,-512.2 68.7,-512.2"/>
<polygon fill="none" stroke="black" points="68.7,-512.2 68.7,-547.8 309.68,-547.8 309.68,-512.2 68.7,-512.2"/>
<text text-anchor="start" x="75.7" y="-525.6" font-family="Arial Bold" font-size="18.00">public.options</text>
<text text-anchor="start" x="178.2" y="-525.6" font-family="Arial" font-size="14.00">    </text>
<text text-anchor="start" x="209.31" y="-525.6" font-family="Arial" font-size="14.00" fill="#666666">[BASE TABLE]</text>
<polygon fill="none" stroke="black" points="68.7,-481.4 68.7,-512.2 309.68,-512.2 309.68,-481.4 68.7,-481.4"/>
<text text-anchor="start" x="75.7" y="-493.6" font-family="Arial" font-size="14.00">id </text>
<text text-anchor="start" x="90.48" y="-493.6" font-family="Arial" font-size="14.00" fill="#666666">[uuid]</text>
<polygon fill="none" stroke="black" points="68.7,-450.6 68.7,-481.4 309.68,-481.4 309.68,-450.6 68.7,-450.6"/>
<text text-anchor="start" x="75.7" y="-462.8" font-family="Arial" font-size="14.00">option_group_id </text>
<text text-anchor="start" x="180.01" y="-462.8" font-family="Arial" font-size="14.00" fill="#666666">[uuid]</text>
<polygon fill="none" stroke="black" points="68.7,-419.8 68.7,-450.6 309.68,-450.6 309.68,-419.8 68.7,-419.8"/>
<text text-anchor="start" x="75.7" y="-432" font-family="Arial" font-size="14.00">label </text>
<text text-anchor="start" x="109.17" y="-432" font-family="Arial" font-size="14.00" fill="#666666">[text]</text>
<polygon fill="none" stroke="black" points="68.7,-389 68.7,-419.8 309.68,-419.8 309.68,-389 68.7,-389"/>
<text text-anchor="start" x="75.7" y="-401.2" font-family="Arial" font-size="14.00">price_delta_cents </text>
<text text-anchor="start" x="189.32" y="-401.2" font-family="Arial" font-size="14.00" fill="#666666">[integer]</text>
<polygon fill="none" stroke="black" points="68.7,-358.2 68.7,-389 309.68,-389 309.68,-358.2 68.7,-358.2"/>
<text text-anchor="start" x="75.7" y="-370.4" font-family="Arial" font-size="14.00">position </text>
<text text-anchor="start" x="127.84" y="-370.4" font-family="Arial" font-size="14.00" fill="#666666">[integer]</text>
<polygon fill="none" stroke="black" stroke-width="3" points="67.2,-356.7 67.2,-549.3 311.18,-549.3 311.18,-356.7 67.2,-356.7"/>
</g>
<!-- public.option_groups -->
<g id="node2" class="node">
<title>public.option_groups</title>
<polygon fill="#efefef" stroke="none" points="43.2,-197.2 43.2,-232.8 335.18,-232.8 335.18,-197.2 43.2,-197.2"/>
<polygon fill="none" stroke="black" points="43.2,-197.2 43.2,-232.8 335.18,-232.8 335.18,-197.2 43.2,-197.2"/>
<text text-anchor="start" x="50.2" y="-210.6" font-family="Arial Bold" font-size="18.00">public.option_groups</text>
<text text-anchor="start" x="203.69" y="-210.6" font-family="Arial" font-size="14.00">    </text>
<text text-anchor="start" x="234.81" y="-210.6" font-family="Arial" font-size="14.00" fill="#666666">[BASE TABLE]</text>
<polygon fill="none" stroke="black" points="43.2,-166.4 43.2,-197.2 335.18,-197.2 335.18,-166.4 43.2,-166.4"/>
<text text-anchor="start" x="50.2" y="-178.6" font-family="Arial" font-size="14.00">id </text>
<text text-anchor="start" x="64.99" y="-178.6" font-family="Arial" font-size="14.00" fill="#666666">[uuid]</text>
<polygon fill="none" stroke="black" points="43.2,-135.6 43.2,-166.4 335.18,-166.4 335.18,-135.6 43.2,-135.6"/>
<text text-anchor="start" x="50.2" y="-147.8" font-family="Arial" font-size="14.00">menu_item_id </text>
<text text-anchor="start" x="142.03" y="-147.8" font-family="Arial" font-size="14.00" fill="#666666">[uuid]</text>
<polygon fill="none" stroke="black" points="43.2,-104.8 43.2,-135.6 335.18,-135.6 335.18,-104.8 43.2,-104.8"/>
<text text-anchor="start" x="50.2" y="-117" font-family="Arial" font-size="14.00">name </text>
<text text-anchor="start" x="89.11" y="-117" font-family="Arial" font-size="14.00" fill="#666666">[text]</text>
<polygon fill="none" stroke="black" points="43.2,-74 43.2,-104.8 335.18,-104.8 335.18,-74 43.2,-74"/>
<text text-anchor="start" x="50.2" y="-86.2" font-family="Arial" font-size="14.00">multi </text>
<text text-anchor="start" x="83.65" y="-86.2" font-family="Arial" font-size="14.00" fill="#666666">[boolean]</text>
<polygon fill="none" stroke="black" points="43.2,-43.2 43.2,-74 335.18,-74 335.18,-43.2 43.2,-43.2"/>
<text text-anchor="start" x="50.2" y="-55.4" font-family="Arial" font-size="14.00">position </text>
<text text-anchor="start" x="102.34" y="-55.4" font-family="Arial" font-size="14.00" fill="#666666">[integer]</text>
</g>
<!-- public.options&#45;&gt;public.option_groups -->
<g id="edge1" class="edge">
<title>public.options:option_group_id&#45;&gt;public.option_groups:id</title>
<path fill="none" stroke="black" d="M320.74,-463.54C376.62,-435.77 396.12,-181.8 336.18,-181.8"/>
<polygon fill="black" stroke="black" points="320.72,-463.55 309.94,-461.55 315.54,-464.81 311.33,-465.84 311.33,-465.84 311.33,-465.84 315.54,-464.81 312.08,-470.29 320.72,-463.55"/>
<text text-anchor="start" x="317.68" y="-476" font-family="Arial" font-size="10.00">FOREIGN KEY (option_group_id) REFERENCES option_groups(id) ON DELETE CASCADE</text>
</g>
</g>
</svg>
