<?xml version="1.0" encoding="UTF-8" standalone="no"?>
<!DOCTYPE svg PUBLIC "-//W3C//DTD SVG 1.1//EN"
 "http://www.w3.org/Graphics/SVG/1.1/DTD/svg11.dtd">
<!-- Generated by graphviz version 12.1.2 (20240928.0832)
 -->
<!-- Title: public.service_requests Pages: 1 -->
<svg width="1068pt" height="725pt"
 viewBox="0.00 0.00 1068.46 725.20" xmlns="http://www.w3.org/2000/svg" xmlns:xlink="http://www.w3.org/1999/xlink">
<g id="graph0" class="graph" transform="scale(1 1) rotate(0) translate(4 721.2)">
<title>public.service_requests</title>
<polygon fill="white" stroke="none" points="-4,4 -4,-721.2 1064.46,-721.2 1064.46,4 -4,4"/>
<!-- public.service_requests -->
<g id="node1" class="node">
<title>public.service_requests</title>
<polygon fill="#efefef" stroke="none" points="400.1,-635.4 400.1,-671 707.03,-671 707.03,-635.4 400.1,-635.4"/>
<polygon fill="none" stroke="black" points="400.1,-635.4 400.1,-671 707.03,-671 707.03,-635.4 400.1,-635.4"/>
<text text-anchor="start" x="407.1" y="-648.8" font-family="Arial Bold" font-size="18.00">public.service_requests</text>
<text text-anchor="start" x="575.54" y="-648.8" font-family="Arial" font-size="14.00">    </text>
<text text-anchor="start" x="606.66" y="-648.8" font-family="Arial" font-size="14.00" fill="#666666">[BASE TABLE]</text>
<polygon fill="none" stroke="black" points="400.1,-604.6 400.1,-635.4 707.03,-635.4 707.03,-604.6 400.1,-604.6"/>
<text text-anchor="start" x="407.1" y="-616.8" font-family="Arial" font-size="14.00">id </text>
<text text-anchor="start" x="421.89" y="-616.8" font-family="Arial" font-size="14.00" fill="#666666">[uuid]</text>
<polygon fill="none" stroke="black" points="400.1,-573.8 400.1,-604.6 707.03,-604.6 707.03,-573.8 400.1,-573.8"/>
<text text-anchor="start" x="407.1" y="-586" font-family="Arial" font-size="14.00">restaurant_id </text>
<text text-anchor="start" x="492.71" y="-586" font-family="Arial" font-size="14.00" fill="#666666">[uuid]</text>
<polygon fill="none" stroke="black" points="400.1,-543 400.1,-573.8 707.03,-573.8 707.03,-543 400.1,-543"/>
<text text-anchor="start" x="407.1" y="-555.2" font-family="Arial" font-size="14.00">table_id </text>
<text text-anchor="start" x="460.03" y="-555.2" font-family="Arial" font-size="14.00" fill="#666666">[uuid]</text>
<polygon fill="none" stroke="black" points="400.1,-512.2 400.1,-543 707.03,-543 707.03,-512.2 400.1,-512.2"/>
<text text-anchor="start" x="407.1" y="-524.4" font-family="Arial" font-size="14.00">kind </text>
<text text-anchor="start" x="436.67" y="-524.4" font-family="Arial" font-size="14.00" fill="#666666">[text]</text>
<polygon fill="none" stroke="black" points="400.1,-481.4 400.1,-512.2 707.03,-512.2 707.03,-481.4 400.1,-481.4"/>
<text text-anchor="start" x="407.1" y="-493.6" font-family="Arial" font-size="14.00">status </text>
<text text-anchor="start" x="448.34" y="-493.6" font-family="Arial" font-size="14.00" fill="#666666">[text]</text>
<polygon fill="none" stroke="black" points="400.1,-450.6 400.1,-481.4 707.03,-481.4 707.03,-450.6 400.1,-450.6"/>
<text text-anchor="start" x="407.1" y="-462.8" font-family="Arial" font-size="14.00">created_at </text>
<text text-anchor="start" x="477.15" y="-462.8" font-family="Arial" font-size="14.00" fill="#666666">[timestamp with time zone]</text>
<polygon fill="none" stroke="black" stroke-width="3" points="398.6,-449.1 398.6,-672.5 708.53,-672.5 708.53,-449.1 398.6,-449.1"/>
</g>
<!-- public.restaurants -->
<g id="node2" class="node">
<title>public.restaurants</title>
<polygon fill="#efefef" stroke="none" points="239.59,-289.6 239.59,-325.2 505.54,-325.2 505.54,-289.6 239.59,-289.6"/>
<polygon fill="none" stroke="black" points="239.59,-289.6 239.59,-325.2 505.54,-325.2 505.54,-289.6 239.59,-289.6"/>
<text text-anchor="start" x="246.59" y="-303" font-family="Arial Bold" font-size="18.00">public.restaurants</text>
<text text-anchor="start" x="374.05" y="-303" font-family="Arial" font-size="14.00">    </text>
<text text-anchor="start" x="405.17" y="-303" font-family="Arial" font-size="14.00" fill="#666666">[BASE TABLE]</text>
<polygon fill="none" stroke="black" points="239.59,-258.8 239.59,-289.6 505.54,-289.6 505.54,-258.8 239.59,-258.8"/>
<text text-anchor="start" x="246.59" y="-271" font-family="Arial" font-size="14.00">id </text>
<text text-anchor="start" x="261.38" y="-271" font-family="Arial" font-size="14.00" fill="#666666">[uuid]</text>
<polygon fill="none" stroke="black" points="239.59,-228 239.59,-258.8 505.54,-258.8 505.54,-228 239.59,-228"/>
<text text-anchor="start" x="246.59" y="-240.2" font-family="Arial" font-size="14.00">slug </text>
<text text-anchor="start" x="276.17" y="-240.2" font-family="Arial" font-size="14.00" fill="#666666">[text]</text>
<polygon fill="none" stroke="black" points="239.59,-197.2 239.59,-228 505.54,-228 505.54,-197.2 239.59,-197.2"/>
<text text-anchor="start" x="246.59" y="-209.4" font-family="Arial" font-size="14.00">name </text>
<text text-anchor="start" x="285.5" y="-209.4" font-family="Arial" font-size="14.00" fill="#666666">[text]</text>
<polygon fill="none" stroke="black" points="239.59,-166.4 239.59,-197.2 505.54,-197.2 505.54,-166.4 239.59,-166.4"/>
<text text-anchor="start" x="246.59" y="-178.6" font-family="Arial" font-size="14.00">created_at </text>
<text text-anchor="start" x="316.64" y="-178.6" font-family="Arial" font-size="14.00" fill="#666666">[timestamp with time zone]</text>
<polygon fill="none" stroke="black" points="239.59,-135.6 239.59,-166.4 505.54,-166.4 505.54,-135.6 239.59,-135.6"/>
<text text-anchor="start" x="246.59" y="-147.8" font-family="Arial" font-size="14.00">org_id </text>
<text text-anchor="start" x="289.4" y="-147.8" font-family="Arial" font-size="14.00" fill="#666666">[uuid]</text>
<polygon fill="none" stroke="black" points="239.59,-104.8 239.59,-135.6 505.54,-135.6 505.54,-104.8 239.59,-104.8"/>
<text text-anchor="start" x="246.59" y="-117" font-family="Arial" font-size="14.00">address </text>
<text text-anchor="start" x="300.29" y="-117" font-family="Arial" font-size="14.00" fill="#666666">[text]</text>
<polygon fill="none" stroke="black" points="239.59,-74 239.59,-104.8 505.54,-104.8 505.54,-74 239.59,-74"/>
<text text-anchor="start" x="246.59" y="-86.2" font-family="Arial" font-size="14.00">hours </text>
<text text-anchor="start" x="285.5" y="-86.2" font-family="Arial" font-size="14.00" fill="#666666">[jsonb]</text>
<polygon fill="none" stroke="black" points="239.59,-43.2 239.59,-74 505.54,-74 505.54,-43.2 239.59,-43.2"/>
<text text-anchor="start" x="246.59" y="-55.4" font-family="Arial" font-size="14.00">contacts </text>
<text text-anchor="start" x="302.62" y="-55.4" font-family="Arial" font-size="14.00" fill="#666666">[jsonb]</text>
</g>
<!-- public.service_requests&#45;&gt;public.restaurants -->
<g id="edge1" class="edge">
<title>public.service_requests:restaurant_id&#45;&gt;public.restaurants:id</title>
<path fill="none" stroke="black" d="M388.73,-588.5C320.15,-578.69 354.29,-468.08 400.1,-404.4 429.02,-364.2 476.52,-408.52 505.54,-368.4 530.08,-334.48 548.41,-274.2 506.54,-274.2"/>
<polygon fill="black" stroke="black" points="388.79,-588.5 398.47,-593.67 394.11,-588.86 398.44,-589.15 398.44,-589.15 398.44,-589.15 394.11,-588.86 399.07,-584.69 388.79,-588.5"/>
<text text-anchor="start" x="7" y="-599.2" font-family="Arial" font-size="10.00">FOREIGN KEY (restaurant_id) REFERENCES restaurants(id) ON DELETE CASCADE</text>
</g>
<!-- public.tables -->
<g id="node3" class="node">
<title>public.tables</title>
<polygon fill="#efefef" stroke="none" points="609.68,-243.4 609.68,-279 859.45,-279 859.45,-243.4 609.68,-243.4"/>
<polygon fill="none" stroke="black" points="609.68,-243.4 609.68,-279 859.45,-279 859.45,-243.4 609.68,-243.4"/>
<text text-anchor="start" x="626.59" y="-256.8" font-family="Arial Bold" font-size="18.00">public.tables</text>
<text text-anchor="start" x="718.06" y="-256.8" font-family="Arial" font-size="14.00">    </text>
<text text-anchor="start" x="749.18" y="-256.8" font-family="Arial" font-size="14.00" fill="#666666">[BASE TABLE]</text>
<polygon fill="none" stroke="black" points="609.68,-212.6 609.68,-243.4 859.45,-243.4 859.45,-212.6 609.68,-212.6"/>
<text text-anchor="start" x="616.68" y="-224.8" font-family="Arial" font-size="14.00">id </text>
<text text-anchor="start" x="631.47" y="-224.8" font-family="Arial" font-size="14.00" fill="#666666">[uuid]</text>
<polygon fill="none" stroke="black" points="609.68,-181.8 609.68,-212.6 859.45,-212.6 859.45,-181.8 609.68,-181.8"/>
<text text-anchor="start" x="616.68" y="-194" font-family="Arial" font-size="14.00">restaurant_id </text>
<text text-anchor="start" x="702.29" y="-194" font-family="Arial" font-size="14.00" fill="#666666">[uuid]</text>
<polygon fill="none" stroke="black" points="609.68,-151 609.68,-181.8 859.45,-181.8 859.45,-151 609.68,-151"/>
<text text-anchor="start" x="616.68" y="-163.2" font-family="Arial" font-size="14.00">label </text>
<text text-anchor="start" x="650.15" y="-163.2" font-family="Arial" font-size="14.00" fill="#666666">[text]</text>
<polygon fill="none" stroke="black" points="609.68,-120.2 609.68,-151 859.45,-151 859.45,-120.2 609.68,-120.2"/>
<text text-anchor="start" x="616.68" y="-132.4" font-family="Arial" font-size="14.00">token </text>
<text text-anchor="start" x="654.82" y="-132.4" font-family="Arial" font-size="14.00" fill="#666666">[text]</text>
<polygon fill="none" stroke="black" points="609.68,-89.4 609.68,-120.2 859.45,-120.2 859.45,-89.4 609.68,-89.4"/>
<text text-anchor="start" x="616.68" y="-101.6" font-family="Arial" font-size="14.00">created_at </text>
<text text-anchor="start" x="686.73" y="-101.6" font-family="Arial" font-size="14.00" fill="#666666">[timestamp with time zone]</text>
</g>
<!-- public.service_requests&#45;&gt;public.tables -->
<g id="edge2" class="edge">
<title>public.service_requests:table_id&#45;&gt;public.tables:id</title>
<path fill="none" stroke="black" d="M718.31,-557.59C772.09,-548.43 734.48,-462.99 707.03,-404.4 683.01,-353.12 633.81,-373.43 609.68,-322.2 591.85,-284.32 566.81,-228 608.68,-228"/>
<polygon fill="black" stroke="black" points="718.34,-557.59 708.02,-553.89 713.02,-558.01 708.7,-558.35 708.7,-558.35 708.7,-558.35 713.02,-558.01 708.72,-562.86 718.34,-557.59"/>
<text text-anchor="start" x="715.03" y="-568.4" font-family="Arial" font-size="10.00">FOREIGN KEY (table_id) REFERENCES tables(id) ON DELETE CASCADE</text>
</g>
</g>
</svg>
